<svg width="120" height="48" viewBox="0 0 120 48" fill="none" xmlns="http://www.w3.org/2000/svg">
<path d="M24.2164 14.9616C18.619 10.2299 15.8185 4.74201 17.953 2.71488C20.097 0.681069 26.3575 2.8729 31.9539 7.61235C37.5513 12.344 40.3518 17.832 38.2174 19.8591C36.0829 21.8862 29.8139 19.6933 24.2164 14.9616ZM25.7683 42.8056C15.8775 35.7712 11.4879 25.9294 15.9722 20.768C17.5176 18.9908 19.9072 18.0031 22.7811 17.7524C17.5378 14.4581 13.8971 9.34653 12.915 3.61115C7.34386 6.84289 3.40148 12.2052 2.60607 18.634C1.16685 30.2662 10.5732 41.0043 23.6114 42.6175C24.3405 42.7156 25.0572 42.7728 25.7683 42.8056Z" fill="#54B34F"/>
<path d="M39.32 40.14C38.2933 40.14 37.3733 39.9733 36.56 39.64C35.7467 39.3067 35.0933 38.8133 34.6 38.16C34.12 37.5067 33.8667 36.72 33.84 35.8H37.48C37.5333 36.32 37.7133 36.72 38.02 37C38.3267 37.2667 38.7267 37.4 39.22 37.4C39.7267 37.4 40.1267 37.2867 40.42 37.06C40.7133 36.82 40.86 36.4933 40.86 36.08C40.86 35.7333 40.74 35.4467 40.5 35.22C40.2733 34.9933 39.9867 34.8067 39.64 34.66C39.3067 34.5133 38.8267 34.3467 38.2 34.16C37.2933 33.88 36.5533 33.6 35.98 33.32C35.4067 33.04 34.9133 32.6267 34.5 32.08C34.0867 31.5333 33.88 30.82 33.88 29.94C33.88 28.6333 34.3533 27.6133 35.3 26.88C36.2467 26.1333 37.48 25.76 39 25.76C40.5467 25.76 41.7933 26.1333 42.74 26.88C43.6867 27.6133 44.1933 28.64 44.26 29.96H40.56C40.5333 29.5067 40.3667 29.1533 40.06 28.9C39.7533 28.6333 39.36 28.5 38.88 28.5C38.4667 28.5 38.1333 28.6133 37.88 28.84C37.6267 29.0533 37.5 29.3667 37.5 29.78C37.5 30.2333 37.7133 30.5867 38.14 30.84C38.5667 31.0933 39.2333 31.3667 40.14 31.66C41.0467 31.9667 41.78 32.26 42.34 32.54C42.9133 32.82 43.4067 33.2267 43.82 33.76C44.2333 34.2933 44.44 34.98 44.44 35.82C44.44 36.62 44.2333 37.3467 43.82 38C43.42 38.6533 42.8333 39.1733 42.06 39.56C41.2867 39.9467 40.3733 40.14 39.32 40.14ZM51.6247 40.16C50.5314 40.16 49.5447 39.9267 48.6647 39.46C47.798 38.9933 47.1114 38.3267 46.6047 37.46C46.1114 36.5933 45.8647 35.58 45.8647 34.42C45.8647 33.2733 46.118 32.2667 46.6247 31.4C47.1314 30.52 47.8247 29.8467 48.7047 29.38C49.5847 28.9133 50.5714 28.68 51.6647 28.68C52.758 28.68 53.7447 28.9133 54.6247 29.38C55.5047 29.8467 56.198 30.52 56.7047 31.4C57.2114 32.2667 57.4647 33.2733 57.4647 34.42C57.4647 35.5667 57.2047 36.58 56.6847 37.46C56.178 38.3267 55.478 38.9933 54.5847 39.46C53.7047 39.9267 52.718 40.16 51.6247 40.16ZM51.6247 37.2C52.278 37.2 52.8314 36.96 53.2847 36.48C53.7514 36 53.9847 35.3133 53.9847 34.42C53.9847 33.5267 53.758 32.84 53.3047 32.36C52.8647 31.88 52.318 31.64 51.6647 31.64C50.998 31.64 50.4447 31.88 50.0047 32.36C49.5647 32.8267 49.3447 33.5133 49.3447 34.42C49.3447 35.3133 49.558 36 49.9847 36.48C50.4247 36.96 50.9714 37.2 51.6247 37.2ZM62.6991 25.2V40H59.2791V25.2H62.6991ZM66.8975 27.68C66.2975 27.68 65.8042 27.5067 65.4175 27.16C65.0442 26.8 64.8575 26.36 64.8575 25.84C64.8575 25.3067 65.0442 24.8667 65.4175 24.52C65.8042 24.16 66.2975 23.98 66.8975 23.98C67.4842 23.98 67.9642 24.16 68.3375 24.52C68.7242 24.8667 68.9175 25.3067 68.9175 25.84C68.9175 26.36 68.7242 26.8 68.3375 27.16C67.9642 27.5067 67.4842 27.68 66.8975 27.68ZM68.5975 28.84V40H65.1775V28.84H68.5975Z" fill="white"/>
<path d="M79.8359 26.04V28.3H74.0159V31.88H78.4759V34.1H74.0159V40H71.2159V26.04H79.8359ZM86.7414 40.18C85.6747 40.18 84.7147 39.9467 83.8614 39.48C83.0081 39 82.3347 38.3267 81.8414 37.46C81.3614 36.5933 81.1214 35.5933 81.1214 34.46C81.1214 33.3267 81.3681 32.3267 81.8614 31.46C82.3681 30.5933 83.0547 29.9267 83.9214 29.46C84.7881 28.98 85.7547 28.74 86.8214 28.74C87.8881 28.74 88.8547 28.98 89.7214 29.46C90.5881 29.9267 91.2681 30.5933 91.7614 31.46C92.2681 32.3267 92.5214 33.3267 92.5214 34.46C92.5214 35.5933 92.2614 36.5933 91.7414 37.46C91.2347 38.3267 90.5414 39 89.6614 39.48C88.7947 39.9467 87.8214 40.18 86.7414 40.18ZM86.7414 37.74C87.2481 37.74 87.7214 37.62 88.1614 37.38C88.6147 37.1267 88.9747 36.7533 89.2414 36.26C89.5081 35.7667 89.6414 35.1667 89.6414 34.46C89.6414 33.4067 89.3614 32.6 88.8014 32.04C88.2547 31.4667 87.5814 31.18 86.7814 31.18C85.9814 31.18 85.3081 31.4667 84.7614 32.04C84.2281 32.6 83.9614 33.4067 83.9614 34.46C83.9614 35.5133 84.2214 36.3267 84.7414 36.9C85.2747 37.46 85.9414 37.74 86.7414 37.74ZM99.4953 40.18C98.4286 40.18 97.4686 39.9467 96.6153 39.48C95.762 39 95.0886 38.3267 94.5953 37.46C94.1153 36.5933 93.8753 35.5933 93.8753 34.46C93.8753 33.3267 94.122 32.3267 94.6153 31.46C95.122 30.5933 95.8086 29.9267 96.6753 29.46C97.542 28.98 98.5086 28.74 99.5753 28.74C100.642 28.74 101.609 28.98 102.475 29.46C103.342 29.9267 104.022 30.5933 104.515 31.46C105.022 32.3267 105.275 33.3267 105.275 34.46C105.275 35.5933 105.015 36.5933 104.495 37.46C103.989 38.3267 103.295 39 102.415 39.48C101.549 39.9467 100.575 40.18 99.4953 40.18ZM99.4953 37.74C100.002 37.74 100.475 37.62 100.915 37.38C101.369 37.1267 101.729 36.7533 101.995 36.26C102.262 35.7667 102.395 35.1667 102.395 34.46C102.395 33.4067 102.115 32.6 101.555 32.04C101.009 31.4667 100.335 31.18 99.5353 31.18C98.7353 31.18 98.062 31.4667 97.5153 32.04C96.982 32.6 96.7153 33.4067 96.7153 34.46C96.7153 35.5133 96.9753 36.3267 97.4953 36.9C98.0286 37.46 98.6953 37.74 99.4953 37.74ZM106.609 34.42C106.609 33.3 106.829 32.3067 107.269 31.44C107.723 30.5733 108.336 29.9067 109.109 29.44C109.883 28.9733 110.743 28.74 111.689 28.74C112.409 28.74 113.096 28.9 113.749 29.22C114.403 29.5267 114.923 29.94 115.309 30.46V25.2H118.149V40H115.309V38.36C114.963 38.9067 114.476 39.3467 113.849 39.68C113.223 40.0133 112.496 40.18 111.669 40.18C110.736 40.18 109.883 39.94 109.109 39.46C108.336 38.98 107.723 38.3067 107.269 37.44C106.829 36.56 106.609 35.5533 106.609 34.42ZM115.329 34.46C115.329 33.78 115.196 33.2 114.929 32.72C114.663 32.2267 114.303 31.8533 113.849 31.6C113.396 31.3333 112.909 31.2 112.389 31.2C111.869 31.2 111.389 31.3267 110.949 31.58C110.509 31.8333 110.149 32.2067 109.869 32.7C109.603 33.18 109.469 33.7533 109.469 34.42C109.469 35.0867 109.603 35.6733 109.869 36.18C110.149 36.6733 110.509 37.0533 110.949 37.32C111.403 37.5867 111.883 37.72 112.389 37.72C112.909 37.72 113.396 37.5933 113.849 37.34C114.303 37.0733 114.663 36.7 114.929 36.22C115.196 35.7267 115.329 35.14 115.329 34.46Z" fill="#54B34F"/>
</svg>
