<svg width="131" height="50" viewBox="0 0 131 50" fill="none" xmlns="http://www.w3.org/2000/svg">
<path d="M24.2165 14.9616C18.6191 10.2299 15.8186 4.74197 17.953 2.71485C20.097 0.681038 26.3575 2.87287 31.9539 7.61232C37.5514 12.344 40.3519 17.8319 38.2174 19.8591C36.083 21.8862 29.8139 19.6933 24.2165 14.9616V14.9616ZM25.7683 42.8056C15.8775 35.7711 11.4879 25.9293 15.9723 20.768C17.5177 18.9908 19.9072 18.003 22.7811 17.7523C17.5378 14.4581 13.8972 9.3465 12.915 3.61112C7.34389 6.84286 3.40151 12.2051 2.6061 18.6339C1.16688 30.2662 10.5733 41.0043 23.6114 42.6175C24.3405 42.7155 25.0573 42.7727 25.7683 42.8056V42.8056Z" fill="#54B34F"/>
<path d="M38.268 41.161C37.0873 41.161 36.0293 40.9693 35.094 40.586C34.1587 40.2027 33.4073 39.6353 32.84 38.884C32.288 38.1327 31.9967 37.228 31.966 36.17H36.152C36.2133 36.768 36.4203 37.228 36.773 37.55C37.1257 37.8567 37.5857 38.01 38.153 38.01C38.7357 38.01 39.1957 37.8797 39.533 37.619C39.8703 37.343 40.039 36.9673 40.039 36.492C40.039 36.0933 39.901 35.7637 39.625 35.503C39.3643 35.2423 39.0347 35.0277 38.636 34.859C38.2527 34.6903 37.7007 34.4987 36.98 34.284C35.9373 33.962 35.0863 33.64 34.427 33.318C33.7677 32.996 33.2003 32.5207 32.725 31.892C32.2497 31.2633 32.012 30.443 32.012 29.431C32.012 27.9283 32.5563 26.7553 33.645 25.912C34.7337 25.0533 36.152 24.624 37.9 24.624C39.6787 24.624 41.1123 25.0533 42.201 25.912C43.2897 26.7553 43.8723 27.936 43.949 29.454H39.694C39.6633 28.9327 39.4717 28.5263 39.119 28.235C38.7663 27.9283 38.314 27.775 37.762 27.775C37.2867 27.775 36.9033 27.9053 36.612 28.166C36.3207 28.4113 36.175 28.7717 36.175 29.247C36.175 29.7683 36.4203 30.1747 36.911 30.466C37.4017 30.7573 38.1683 31.0717 39.211 31.409C40.2537 31.7617 41.097 32.099 41.741 32.421C42.4003 32.743 42.9677 33.2107 43.443 33.824C43.9183 34.4373 44.156 35.227 44.156 36.193C44.156 37.113 43.9183 37.9487 43.443 38.7C42.983 39.4513 42.3083 40.0493 41.419 40.494C40.5297 40.9387 39.4793 41.161 38.268 41.161ZM52.4184 41.184C51.1611 41.184 50.0264 40.9157 49.0144 40.379C48.0177 39.8423 47.2281 39.0757 46.6454 38.079C46.0781 37.0823 45.7944 35.917 45.7944 34.583C45.7944 33.2643 46.0857 32.1067 46.6684 31.11C47.2511 30.098 48.0484 29.3237 49.0604 28.787C50.0724 28.2503 51.2071 27.982 52.4644 27.982C53.7217 27.982 54.8564 28.2503 55.8684 28.787C56.8804 29.3237 57.6777 30.098 58.2604 31.11C58.8431 32.1067 59.1344 33.2643 59.1344 34.583C59.1344 35.9017 58.8354 37.067 58.2374 38.079C57.6547 39.0757 56.8497 39.8423 55.8224 40.379C54.8104 40.9157 53.6757 41.184 52.4184 41.184ZM52.4184 37.78C53.1697 37.78 53.8061 37.504 54.3274 36.952C54.8641 36.4 55.1324 35.6103 55.1324 34.583C55.1324 33.5557 54.8717 32.766 54.3504 32.214C53.8444 31.662 53.2157 31.386 52.4644 31.386C51.6977 31.386 51.0614 31.662 50.5554 32.214C50.0494 32.7507 49.7964 33.5403 49.7964 34.583C49.7964 35.6103 50.0417 36.4 50.5324 36.952C51.0384 37.504 51.6671 37.78 52.4184 37.78ZM65.1539 23.98V41H61.2209V23.98H65.1539ZM69.9821 26.832C69.2921 26.832 68.7248 26.6327 68.2801 26.234C67.8508 25.82 67.6361 25.314 67.6361 24.716C67.6361 24.1027 67.8508 23.5967 68.2801 23.198C68.7248 22.784 69.2921 22.577 69.9821 22.577C70.6568 22.577 71.2088 22.784 71.6381 23.198C72.0828 23.5967 72.3051 24.1027 72.3051 24.716C72.3051 25.314 72.0828 25.82 71.6381 26.234C71.2088 26.6327 70.6568 26.832 69.9821 26.832ZM71.9371 28.166V41H68.0041V28.166H71.9371Z" fill="black"/>
<path d="M84.8613 24.946V27.545H78.1683V31.662H83.2973V34.215H78.1683V41H74.9483V24.946H84.8613ZM92.8026 41.207C91.576 41.207 90.472 40.9387 89.4906 40.402C88.5093 39.85 87.735 39.0757 87.1676 38.079C86.6156 37.0823 86.3396 35.9323 86.3396 34.629C86.3396 33.3257 86.6233 32.1757 87.1906 31.179C87.7733 30.1823 88.563 29.4157 89.5596 28.879C90.5563 28.327 91.668 28.051 92.8946 28.051C94.1213 28.051 95.233 28.327 96.2296 28.879C97.2263 29.4157 98.0083 30.1823 98.5756 31.179C99.1583 32.1757 99.4496 33.3257 99.4496 34.629C99.4496 35.9323 99.1506 37.0823 98.5526 38.079C97.97 39.0757 97.1726 39.85 96.1606 40.402C95.164 40.9387 94.0446 41.207 92.8026 41.207ZM92.8026 38.401C93.3853 38.401 93.9296 38.263 94.4356 37.987C94.957 37.6957 95.371 37.2663 95.6776 36.699C95.9843 36.1317 96.1376 35.4417 96.1376 34.629C96.1376 33.4177 95.8156 32.49 95.1716 31.846C94.543 31.1867 93.7686 30.857 92.8486 30.857C91.9286 30.857 91.1543 31.1867 90.5256 31.846C89.9123 32.49 89.6056 33.4177 89.6056 34.629C89.6056 35.8403 89.9046 36.7757 90.5026 37.435C91.116 38.079 91.8826 38.401 92.8026 38.401ZM107.47 41.207C106.243 41.207 105.139 40.9387 104.158 40.402C103.176 39.85 102.402 39.0757 101.835 38.079C101.283 37.0823 101.007 35.9323 101.007 34.629C101.007 33.3257 101.29 32.1757 101.858 31.179C102.44 30.1823 103.23 29.4157 104.227 28.879C105.223 28.327 106.335 28.051 107.562 28.051C108.788 28.051 109.9 28.327 110.897 28.879C111.893 29.4157 112.675 30.1823 113.243 31.179C113.825 32.1757 114.117 33.3257 114.117 34.629C114.117 35.9323 113.818 37.0823 113.22 38.079C112.637 39.0757 111.84 39.85 110.828 40.402C109.831 40.9387 108.712 41.207 107.47 41.207ZM107.47 38.401C108.052 38.401 108.597 38.263 109.103 37.987C109.624 37.6957 110.038 37.2663 110.345 36.699C110.651 36.1317 110.805 35.4417 110.805 34.629C110.805 33.4177 110.483 32.49 109.839 31.846C109.21 31.1867 108.436 30.857 107.516 30.857C106.596 30.857 105.821 31.1867 105.193 31.846C104.579 32.49 104.273 33.4177 104.273 34.629C104.273 35.8403 104.572 36.7757 105.17 37.435C105.783 38.079 106.55 38.401 107.47 38.401ZM115.651 34.583C115.651 33.295 115.904 32.1527 116.41 31.156C116.931 30.1593 117.636 29.3927 118.526 28.856C119.415 28.3193 120.404 28.051 121.493 28.051C122.321 28.051 123.11 28.235 123.862 28.603C124.613 28.9557 125.211 29.431 125.656 30.029V23.98H128.922V41H125.656V39.114C125.257 39.7427 124.697 40.2487 123.977 40.632C123.256 41.0153 122.42 41.207 121.47 41.207C120.396 41.207 119.415 40.931 118.526 40.379C117.636 39.827 116.931 39.0527 116.41 38.056C115.904 37.044 115.651 35.8863 115.651 34.583ZM125.679 34.629C125.679 33.847 125.525 33.18 125.219 32.628C124.912 32.0607 124.498 31.6313 123.977 31.34C123.455 31.0333 122.896 30.88 122.298 30.88C121.7 30.88 121.148 31.0257 120.642 31.317C120.136 31.6083 119.722 32.0377 119.4 32.605C119.093 33.157 118.94 33.8163 118.94 34.583C118.94 35.3497 119.093 36.0243 119.4 36.607C119.722 37.1743 120.136 37.6113 120.642 37.918C121.163 38.2247 121.715 38.378 122.298 38.378C122.896 38.378 123.455 38.2323 123.977 37.941C124.498 37.6343 124.912 37.205 125.219 36.653C125.525 36.0857 125.679 35.411 125.679 34.629Z" fill="#54B34F"/>
</svg>
